OpenSim_Sub04_EMGBaseline_GRF.mot
version=1
nRows=34
nColumns=19
inDegrees=no
endheader
time	lFx	lFy	lFz	lCOPx	lCOPy	lCOPz	rFx	rFy	rFz	rCOPx	rCOPy	rCOPz	lMx	lMy	lMz	rMx	rMy	rMz
19.85000000	0.35869725	177.63244764	-7.56716435	1.05731235	0	-0.63052534	75.21688890	541.46777413	-39.65671675	0.75839050	0	-0.43148823	0	-1.97230145	0	0	0.29086443	-0.00000000
19.86000000	-5.41244145	225.11567392	-4.62967884	1.04729632	0	-0.62398051	76.85593029	510.58217667	-36.09571691	0.75362235	0	-0.43188902	0	-0.87618197	0	0	0.33303759	0
19.87000000	-12.39731906	280.27421954	1.34151755	1.04197090	0	-0.62138994	77.31563057	474.58421234	-32.05327923	0.74899729	0	-0.43224874	0	-0.58401023	0	0	0.40751334	0
19.88000000	-20.37234075	340.69763446	10.25653688	1.04015292	0	-0.62136396	75.82376478	432.49452533	-27.53473750	0.74444599	0	-0.43262862	0	-1.02315498	0	0	0.48432122	0
19.89000000	-28.80887976	402.56255187	20.62957005	1.03954226	0	-0.62242255	71.73053354	384.40790600	-22.65663795	0.74058529	0	-0.43305366	0	-1.79467581	0	0	0.50017253	0.00000000
19.90000000	-36.77999493	460.53016191	30.09161051	1.03882463	0	-0.62364017	64.94760632	331.65758855	-17.60557251	0.73844462	0	-0.43390062	0	-2.40734992	0	0	0.43693791	-0.00000000
19.91000000	-43.13477252	510.12413860	36.53590343	1.03819939	0	-0.62465145	55.90569684	276.85445742	-12.77493428	0.73960264	0	-0.43607452	0	-2.49982862	0	0	0.32965084	0
19.92000000	-48.02208738	550.41154317	40.63502823	1.03691529	0	-0.62544762	45.59224932	222.92379540	-8.63159869	0.74501005	0	-0.44054190	0	-2.31957955	0	0	0.18957531	-0.00000000
19.93000000	-51.68673468	583.08487113	44.43684156	1.03432615	0	-0.62610726	34.89403721	172.63301895	-5.46569191	0.75273901	0	-0.44648678	0	-2.26937856	0	0	0.03048432	0.00000000
19.94000000	-54.01627824	609.41194086	48.62363479	1.03082995	0	-0.62672530	24.25689804	127.87625292	-3.43410844	0.75216384	0	-0.44820066	0	-2.41999714	0	0	-0.08270875	0.00000000
19.95000000	-55.33834649	629.90920450	52.62679911	1.02717911	0	-0.62732488	14.08307413	90.03542097	-2.31592280	0.71897656	0	-0.43105509	0	-2.64597230	0	0	-0.11606168	0
19.96000000	-56.17350302	645.52030221	55.93189333	1.02383621	0	-0.62790723	5.11911405	59.88302498	-1.62225210	0.61737008	0	-0.37189358	0	-2.84370946	0	0	-0.10399573	-0.00000000
19.97000000	-56.59229596	657.59047172	58.44555976	1.02073284	0	-0.62843590	-1.46217667	37.02099463	-1.11807696	0.42575849	0	-0.25631160	0	-2.93607112	0	0	-0.07059537	0
19.98000000	-56.53225898	667.42911039	60.27612340	1.01765793	0	-0.62894750	-4.76411683	20.27569528	-0.71890743	0.20250795	0	-0.12072577	0	-2.93390061	0	0	-0.05720380	0.00000000
19.99000000	-56.06790581	675.98753843	61.69261736	1.01447966	0	-0.62948347	-4.55386351	8.74061713	-0.40221392	0.05139499	0	-0.02995643	0	-2.94569236	0	0	-0.02825136	0.00000000
20	-55.29518232	683.92483225	62.96359638	1.01113768	0	-0.63005917	-2.47818888	2.24131376	-0.11657385	-0.01194598	0	0.00767249	0	-3.01652345	0	0	-0.00770416	-0.00000000
20.01000000	-54.31535083	691.18236633	64.15239676	1.00743394	0	-0.63066297	-0.75132594	-0.11998591	-0.01373532	-0.02319063	0	0.01408945	0	-3.10562955	0	0	0.00123564	-0.00000000
20.02000000	-52.97127215	696.98342873	65.19372012	1.00311640	0	-0.63124203	0.07844281	-0.20655853	-0.03837803	-0.01555718	0	0.00934238	0	-3.20908885	0	0	0.00302853	0.00000000
20.03000000	-51.13376132	700.63978446	65.80931990	0.99820886	0	-0.63175903	0.26927702	0.46955852	0.00245020	-0.00643392	0	0.00382069	0	-3.29001474	0	0	0.00211721	0.00000000
20.04000000	-48.81259140	702.06129733	65.68578218	0.99297128	0	-0.63220654	0.23096567	1.07405990	-0.00524138	-0.00108740	0	0.00061832	0	-3.27818594	0	0	0.00090924	-0.00000000
20.05000000	-46.21776544	701.61830986	64.91957481	0.98772571	0	-0.63260266	0.16073315	1.36558906	-0.06754292	0.00081957	0	-0.00050881	0	-3.21682353	0	0	0.00017512	0.00000000
20.06000000	-43.54074392	699.68328936	63.78077795	0.98262490	0	-0.63296426	0.09839500	1.45928795	-0.08873524	0.00094791	0	-0.00057351	0	-3.16643840	0	0	-0.00009852	-0.00000000
20.07000000	-40.80952295	696.50264758	62.37112936	0.97756907	0	-0.63331416	0.05029734	1.47585765	-0.07884680	0.00054853	0	-0.00032846	0	-3.11328156	0	0	-0.00012566	0.00000000
20.08000000	-38.13411807	692.30831885	60.94312622	0.97242621	0	-0.63368771	0.01742905	1.44988886	-0.00055698	0.00019251	0	-0.00011372	0	-3.10095092	0	0	-0.00007538	0.00000000
20.09000000	-35.70609632	687.25133301	59.73279166	0.96721525	0	-0.63408816	-0.00321799	1.38233395	0.07820082	0.00001063	0	-0.00000511	0	-3.19528272	0	0	-0.00002767	-0.00000000
20.10000000	-33.59228003	681.55368082	58.63348077	0.96198868	0	-0.63448780	-0.02065156	1.25487380	0.08952370	-0.00004219	0	0.00002587	0	-3.32893371	0	0	-0.00000244	-0.00000000
20.11000000	-31.54950489	675.61267307	57.49235413	0.95675369	0	-0.63486791	-0.04963164	1.02770768	0.12413696	-0.00003684	0	0.00002221	0	-3.47270293	0	0	0.00000533	0.00000000
20.12000000	-29.32382835	669.82597295	56.23806544	0.95143050	0	-0.63518387	-0.07106154	0.79416440	0.14911084	-0.00001859	0	0.00001110	0	-3.60926737	0	0	0.00000494	0.00000000
20.13000000	-26.81201266	664.50628812	54.80829698	0.94602577	0	-0.63543314	-0.08608161	0.68989630	0.10858237	-0.00000528	0	0.00000309	0	-3.65949148	0	0	0.00000258	-0.00000000
20.14000000	-24.20672148	659.72871823	53.33053342	0.94056623	0	-0.63560669	-0.11440370	0.69940796	0.08277357	0.00000064	0	-0.00000043	0	-3.64425884	0	0	0.00000078	0.00000000
20.15000000	-21.72027880	655.06441280	51.91583650	0.93497261	0	-0.63567168	-0.12937096	0.71533141	0.07410759	0.00000191	0	-0.00000116	0	-3.61425613	0	0	-0.00000005	-0.00000000
20.16000000	-19.36502165	650.06452184	50.48395381	0.92932682	0	-0.63567444	-0.10602341	0.72105700	0.03107849	0.00000138	0	-0.00000083	0	-3.56198350	0	0	-0.00000025	0.00000000
20.17000000	-17.14464830	644.68703654	49.10444411	0.92358243	0	-0.63562571	-0.07258693	0.67758195	-0.03399978	0.00000061	0	-0.00000036	0	-3.51065835	0	0	-0.00000019	0.00000000
20.18000000	-15.08428198	639.32405231	47.95383609	0.91774219	0	-0.63550340	-0.05722907	0.61910526	-0.09397949	0.00000013	0	-0.00000007	0	-3.50837612	0	0	-0.00000008	0.00000000
